<svg version="1.2" xmlns="http://www.w3.org/2000/svg" viewBox="0 0 376 376" width="376" height="376">
	<style>
		.s0 { fill: #ffffff } 
	</style>
	<path id="atv" class="s0" aria-label="atv"  d="m104.9 246.7q6.4 0 11.9-2 5.7-2.1 10.2-5.8 4.5-3.9 7.2-9h0.4v15.1h19.8v-66q0-9.7-4.8-16.7-4.6-7.2-13.3-11.1-8.5-3.9-20.2-3.9-11.7 0-20.3 3.8-8.6 3.9-13.4 10.5-4.8 6.6-5.6 14.9l-0.1 1h18.7l0.1-0.8q1.3-5.8 6.4-9.4 5.2-3.7 13.7-3.7 9.1 0 14.1 4.6 4.9 4.5 4.9 12.4v28.5q0 6.2-3.2 11.2-3.2 4.9-8.7 7.8-5.5 2.8-12.4 2.8-7.9 0-12.8-3.6-4.7-3.7-4.7-10v-0.2q0-6.1 4.7-9.7 4.9-3.8 13.7-4.3l33.6-2.1v-13.8l-36.2 2.1q-17 1-26.4 8.4-9.3 7.3-9.3 19.9v0.2q0 8.6 3.9 15.2 4.1 6.4 11.3 10.1 7.3 3.6 16.8 3.6zm102.5 0.2q3.1 0 5.6-0.3 2.8-0.2 4.5-0.5v-15.3q-1.1 0.2-2.5 0.4-1.3 0-2.8 0-6.3 0-9.6-2.6-3.1-2.7-3.1-10v-53.8h18v-15.6h-18v-25h-20.2v25h-13.8v15.6h13.8v54.9q0 14.3 6.9 20.8 7 6.4 21.2 6.4zm17.1-97.7l34.5 95.8h21.3l34.4-95.8h-20.7l-24 76.5h-0.4l-24.1-76.5z"/>
</svg>